<svg xmlns="http://www.w3.org/2000/svg" xmlns:xlink="http://www.w3.org/1999/xlink" width="500" zoomAndPan="magnify" viewBox="0 0 375 374.999991" height="500" preserveAspectRatio="xMidYMid meet" version="1.0"><defs><g/><clipPath id="f1ff5d13af"><path d="M 21.488281 116 L 326 116 L 326 349 L 21.488281 349 Z M 21.488281 116 " clip-rule="nonzero"/></clipPath><clipPath id="2316223510"><path d="M 48 36 L 353.738281 36 L 353.738281 119 L 48 119 Z M 48 36 " clip-rule="nonzero"/></clipPath><clipPath id="981aa78456"><path d="M 49 36 L 353.738281 36 L 353.738281 119 L 49 119 Z M 49 36 " clip-rule="nonzero"/></clipPath></defs><path fill="#fec1b2" d="M 65.664062 106.441406 C 65.664062 106.441406 78.140625 348.808594 58.328125 378.078125 L 325.953125 378.078125 C 325.953125 378.078125 345.367188 355.214844 346.101562 311.316406 C 346.835938 267.417969 346.101562 106.449219 346.101562 106.449219 Z M 65.664062 106.441406 " fill-opacity="1" fill-rule="nonzero"/><path fill="#21254c" d="M 65.664062 106.441406 C 65.664062 106.441406 78.140625 348.808594 58.328125 378.078125 L 325.953125 378.078125 C 325.953125 378.078125 345.367188 355.214844 346.101562 311.316406 C 346.835938 267.417969 346.101562 106.449219 346.101562 106.449219 Z M 65.664062 106.441406 " fill-opacity="0.25" fill-rule="nonzero"/><path fill="#21254c" d="M 82.835938 106.441406 C 82.835938 106.441406 93.898438 335.476562 76.332031 363.132812 L 313.488281 363.132812 C 313.488281 363.132812 330.6875 341.527344 331.335938 300.039062 C 331.984375 258.550781 331.335938 106.441406 331.335938 106.441406 Z M 82.835938 106.441406 " fill-opacity="0.25" fill-rule="nonzero"/><g clip-path="url(#f1ff5d13af)"><path fill="#fec1b2" d="M 57.171875 116.210938 C 57.933594 190.789062 53.992188 313.996094 21.492188 348.191406 L 294.917969 348.191406 C 294.917969 348.191406 328.714844 301.902344 325.773438 116.214844 L 57.171875 116.214844 Z M 57.171875 116.210938 " fill-opacity="1" fill-rule="nonzero"/></g><path fill="#cc214c" d="M 51.796875 326.597656 L 269.167969 326.597656 L 269.632812 325.789062 C 270.671875 323.972656 294.117188 280.976562 294.039062 116.210938 L 290.828125 116.210938 C 290.859375 267.972656 270.417969 316.765625 267.253906 323.382812 L 58.050781 323.382812 C 79.882812 289.207031 84.246094 187.179688 84.480469 116.210938 L 81.269531 116.210938 C 81.046875 188.625 76.558594 293.402344 53.707031 324.027344 Z M 51.796875 326.597656 " fill-opacity="1" fill-rule="nonzero"/><path fill="#21254c" d="M 325.773438 116.210938 L 57.171875 116.210938 C 57.519531 149.980469 56.886719 193.71875 53.089844 234.65625 C 97.621094 198.5625 151.796875 180.621094 204.714844 187.441406 C 246.761719 192.855469 287.019531 213.773438 320.691406 245.5625 C 324.34375 212.78125 326.628906 170.484375 325.773438 116.210938 Z M 325.773438 116.210938 " fill-opacity="0.25" fill-rule="nonzero"/><g clip-path="url(#2316223510)"><path fill="#cc214c" d="M 331.691406 36.121094 L 48.003906 36.121094 C 48.003906 36.121094 48.988281 59.195312 49.539062 94.460938 C 49.65625 101.886719 49.757812 109.824219 49.820312 118.238281 L 347.550781 118.238281 L 353.75 36.121094 Z M 331.691406 36.121094 " fill-opacity="1" fill-rule="nonzero"/></g><g clip-path="url(#981aa78456)"><path fill="#21254c" d="M 331.691406 36.121094 C 332.46875 56.554688 333.023438 75.9375 333.390625 94.460938 L 49.535156 94.460938 C 49.652344 101.886719 49.75 109.824219 49.816406 118.238281 L 347.550781 118.238281 L 353.75 36.121094 Z M 331.691406 36.121094 " fill-opacity="0.25" fill-rule="nonzero"/></g><path fill="#21254c" d="M 73.191406 61.8125 C 73.191406 62.238281 73.148438 62.65625 73.066406 63.070312 C 72.984375 63.488281 72.863281 63.890625 72.699219 64.28125 C 72.539062 64.671875 72.339844 65.042969 72.105469 65.394531 C 71.867188 65.746094 71.601562 66.070312 71.300781 66.371094 C 71.003906 66.671875 70.679688 66.9375 70.324219 67.171875 C 69.972656 67.40625 69.601562 67.605469 69.210938 67.769531 C 68.820312 67.929688 68.417969 68.050781 68.003906 68.136719 C 67.585938 68.21875 67.167969 68.257812 66.746094 68.257812 C 66.320312 68.257812 65.902344 68.21875 65.488281 68.136719 C 65.074219 68.050781 64.667969 67.929688 64.277344 67.769531 C 63.886719 67.605469 63.515625 67.40625 63.164062 67.171875 C 62.8125 66.9375 62.488281 66.671875 62.1875 66.371094 C 61.886719 66.070312 61.621094 65.746094 61.386719 65.394531 C 61.152344 65.042969 60.953125 64.671875 60.789062 64.28125 C 60.628906 63.890625 60.507812 63.488281 60.421875 63.070312 C 60.339844 62.65625 60.300781 62.238281 60.300781 61.8125 C 60.300781 61.390625 60.339844 60.972656 60.421875 60.558594 C 60.507812 60.140625 60.628906 59.738281 60.789062 59.347656 C 60.953125 58.957031 61.152344 58.585938 61.386719 58.234375 C 61.621094 57.882812 61.886719 57.554688 62.1875 57.257812 C 62.488281 56.957031 62.8125 56.691406 63.164062 56.457031 C 63.515625 56.21875 63.886719 56.023438 64.277344 55.859375 C 64.667969 55.699219 65.074219 55.574219 65.488281 55.492188 C 65.902344 55.410156 66.320312 55.371094 66.746094 55.371094 C 67.167969 55.371094 67.585938 55.410156 68.003906 55.492188 C 68.417969 55.574219 68.820312 55.699219 69.210938 55.859375 C 69.601562 56.023438 69.972656 56.21875 70.324219 56.457031 C 70.679688 56.691406 71.003906 56.957031 71.300781 57.257812 C 71.601562 57.554688 71.867188 57.882812 72.105469 58.234375 C 72.339844 58.585938 72.539062 58.957031 72.699219 59.347656 C 72.863281 59.738281 72.984375 60.140625 73.066406 60.558594 C 73.148438 60.972656 73.191406 61.390625 73.191406 61.8125 Z M 73.191406 61.8125 " fill-opacity="0.25" fill-rule="nonzero"/><path fill="#21254c" d="M 122.683594 61.8125 C 122.683594 62.238281 122.640625 62.65625 122.558594 63.070312 C 122.476562 63.488281 122.355469 63.890625 122.191406 64.28125 C 122.03125 64.671875 121.832031 65.042969 121.597656 65.394531 C 121.363281 65.746094 121.09375 66.070312 120.796875 66.371094 C 120.496094 66.671875 120.171875 66.9375 119.820312 67.171875 C 119.464844 67.40625 119.09375 67.605469 118.703125 67.769531 C 118.3125 67.929688 117.910156 68.050781 117.496094 68.136719 C 117.078125 68.21875 116.660156 68.257812 116.238281 68.257812 C 115.8125 68.257812 115.394531 68.21875 114.980469 68.136719 C 114.566406 68.050781 114.160156 67.929688 113.769531 67.769531 C 113.378906 67.605469 113.007812 67.40625 112.65625 67.171875 C 112.304688 66.9375 111.980469 66.671875 111.679688 66.371094 C 111.378906 66.070312 111.113281 65.746094 110.878906 65.394531 C 110.644531 65.042969 110.445312 64.671875 110.28125 64.28125 C 110.121094 63.890625 110 63.488281 109.914062 63.070312 C 109.832031 62.65625 109.792969 62.238281 109.792969 61.8125 C 109.792969 61.390625 109.832031 60.972656 109.914062 60.558594 C 110 60.140625 110.121094 59.738281 110.28125 59.347656 C 110.445312 58.957031 110.644531 58.585938 110.878906 58.234375 C 111.113281 57.882812 111.378906 57.554688 111.679688 57.257812 C 111.980469 56.957031 112.304688 56.691406 112.65625 56.457031 C 113.007812 56.21875 113.378906 56.023438 113.769531 55.859375 C 114.160156 55.699219 114.566406 55.574219 114.980469 55.492188 C 115.394531 55.410156 115.8125 55.371094 116.238281 55.371094 C 116.660156 55.371094 117.078125 55.410156 117.496094 55.492188 C 117.910156 55.574219 118.3125 55.699219 118.703125 55.859375 C 119.09375 56.023438 119.464844 56.21875 119.820312 56.457031 C 120.171875 56.691406 120.496094 56.957031 120.796875 57.257812 C 121.09375 57.554688 121.363281 57.882812 121.597656 58.234375 C 121.832031 58.585938 122.03125 58.957031 122.191406 59.347656 C 122.355469 59.738281 122.476562 60.140625 122.558594 60.558594 C 122.640625 60.972656 122.683594 61.390625 122.683594 61.8125 Z M 122.683594 61.8125 " fill-opacity="0.25" fill-rule="nonzero"/><path fill="#21254c" d="M 172.171875 61.8125 C 172.171875 62.238281 172.128906 62.65625 172.046875 63.070312 C 171.964844 63.488281 171.84375 63.890625 171.679688 64.28125 C 171.519531 64.671875 171.320312 65.042969 171.085938 65.394531 C 170.847656 65.746094 170.582031 66.070312 170.28125 66.371094 C 169.984375 66.671875 169.65625 66.9375 169.304688 67.171875 C 168.953125 67.40625 168.582031 67.605469 168.191406 67.769531 C 167.800781 67.929688 167.398438 68.050781 166.984375 68.136719 C 166.566406 68.21875 166.148438 68.257812 165.726562 68.257812 C 165.300781 68.257812 164.882812 68.21875 164.46875 68.136719 C 164.054688 68.050781 163.648438 67.929688 163.257812 67.769531 C 162.867188 67.605469 162.496094 67.40625 162.144531 67.171875 C 161.792969 66.9375 161.46875 66.671875 161.167969 66.371094 C 160.867188 66.070312 160.601562 65.746094 160.367188 65.394531 C 160.132812 65.042969 159.933594 64.671875 159.769531 64.28125 C 159.609375 63.890625 159.484375 63.488281 159.402344 63.070312 C 159.320312 62.65625 159.28125 62.238281 159.28125 61.8125 C 159.28125 61.390625 159.320312 60.972656 159.402344 60.558594 C 159.484375 60.140625 159.609375 59.738281 159.769531 59.347656 C 159.933594 58.957031 160.132812 58.585938 160.367188 58.234375 C 160.601562 57.882812 160.867188 57.554688 161.167969 57.257812 C 161.46875 56.957031 161.792969 56.691406 162.144531 56.457031 C 162.496094 56.21875 162.867188 56.023438 163.257812 55.859375 C 163.648438 55.699219 164.054688 55.574219 164.46875 55.492188 C 164.882812 55.410156 165.300781 55.371094 165.726562 55.371094 C 166.148438 55.371094 166.566406 55.410156 166.984375 55.492188 C 167.398438 55.574219 167.800781 55.699219 168.191406 55.859375 C 168.582031 56.023438 168.953125 56.21875 169.304688 56.457031 C 169.65625 56.691406 169.984375 56.957031 170.28125 57.257812 C 170.582031 57.554688 170.847656 57.882812 171.085938 58.234375 C 171.320312 58.585938 171.519531 58.957031 171.679688 59.347656 C 171.84375 59.738281 171.964844 60.140625 172.046875 60.558594 C 172.128906 60.972656 172.171875 61.390625 172.171875 61.8125 Z M 172.171875 61.8125 " fill-opacity="0.25" fill-rule="nonzero"/><path fill="#21254c" d="M 221.664062 61.8125 C 221.664062 62.238281 221.621094 62.65625 221.539062 63.070312 C 221.457031 63.488281 221.335938 63.890625 221.171875 64.28125 C 221.011719 64.671875 220.8125 65.042969 220.578125 65.394531 C 220.34375 65.746094 220.074219 66.070312 219.777344 66.371094 C 219.476562 66.671875 219.152344 66.9375 218.800781 67.171875 C 218.445312 67.40625 218.074219 67.605469 217.683594 67.769531 C 217.292969 67.929688 216.890625 68.050781 216.476562 68.136719 C 216.058594 68.21875 215.640625 68.257812 215.21875 68.257812 C 214.792969 68.257812 214.375 68.21875 213.960938 68.136719 C 213.546875 68.050781 213.140625 67.929688 212.75 67.769531 C 212.359375 67.605469 211.988281 67.40625 211.636719 67.171875 C 211.285156 66.9375 210.960938 66.671875 210.660156 66.371094 C 210.359375 66.070312 210.09375 65.746094 209.859375 65.394531 C 209.625 65.042969 209.425781 64.671875 209.261719 64.28125 C 209.101562 63.890625 208.980469 63.488281 208.894531 63.070312 C 208.8125 62.65625 208.773438 62.238281 208.773438 61.8125 C 208.773438 61.390625 208.8125 60.972656 208.894531 60.558594 C 208.980469 60.140625 209.101562 59.738281 209.261719 59.347656 C 209.425781 58.957031 209.625 58.585938 209.859375 58.234375 C 210.09375 57.882812 210.359375 57.554688 210.660156 57.257812 C 210.960938 56.957031 211.285156 56.691406 211.636719 56.457031 C 211.988281 56.21875 212.359375 56.023438 212.75 55.859375 C 213.140625 55.699219 213.546875 55.574219 213.960938 55.492188 C 214.375 55.410156 214.792969 55.371094 215.21875 55.371094 C 215.640625 55.371094 216.058594 55.410156 216.476562 55.492188 C 216.890625 55.574219 217.292969 55.699219 217.683594 55.859375 C 218.074219 56.023438 218.445312 56.21875 218.800781 56.457031 C 219.152344 56.691406 219.476562 56.957031 219.777344 57.257812 C 220.074219 57.554688 220.34375 57.882812 220.578125 58.234375 C 220.8125 58.585938 221.011719 58.957031 221.171875 59.347656 C 221.335938 59.738281 221.457031 60.140625 221.539062 60.558594 C 221.621094 60.972656 221.664062 61.390625 221.664062 61.8125 Z M 221.664062 61.8125 " fill-opacity="0.25" fill-rule="nonzero"/><path fill="#21254c" d="M 271.15625 61.8125 C 271.15625 62.238281 271.113281 62.65625 271.03125 63.070312 C 270.949219 63.488281 270.828125 63.890625 270.664062 64.28125 C 270.503906 64.671875 270.304688 65.042969 270.070312 65.394531 C 269.835938 65.746094 269.566406 66.070312 269.269531 66.371094 C 268.96875 66.671875 268.644531 66.9375 268.292969 67.171875 C 267.941406 67.40625 267.566406 67.605469 267.175781 67.769531 C 266.785156 67.929688 266.382812 68.050781 265.96875 68.136719 C 265.554688 68.21875 265.132812 68.257812 264.710938 68.257812 C 264.289062 68.257812 263.867188 68.21875 263.453125 68.136719 C 263.039062 68.050781 262.636719 67.929688 262.242188 67.769531 C 261.851562 67.605469 261.480469 67.40625 261.128906 67.171875 C 260.777344 66.9375 260.453125 66.671875 260.152344 66.371094 C 259.855469 66.070312 259.585938 65.746094 259.351562 65.394531 C 259.117188 65.042969 258.917969 64.671875 258.753906 64.28125 C 258.59375 63.890625 258.472656 63.488281 258.390625 63.070312 C 258.304688 62.65625 258.265625 62.238281 258.265625 61.8125 C 258.265625 61.390625 258.304688 60.972656 258.390625 60.558594 C 258.472656 60.140625 258.59375 59.738281 258.753906 59.347656 C 258.917969 58.957031 259.117188 58.585938 259.351562 58.234375 C 259.585938 57.882812 259.855469 57.554688 260.152344 57.257812 C 260.453125 56.957031 260.777344 56.691406 261.128906 56.457031 C 261.480469 56.21875 261.851562 56.023438 262.242188 55.859375 C 262.636719 55.699219 263.039062 55.574219 263.453125 55.492188 C 263.867188 55.410156 264.289062 55.371094 264.710938 55.371094 C 265.132812 55.371094 265.554688 55.410156 265.96875 55.492188 C 266.382812 55.574219 266.785156 55.699219 267.175781 55.859375 C 267.566406 56.023438 267.941406 56.21875 268.292969 56.457031 C 268.644531 56.691406 268.96875 56.957031 269.269531 57.257812 C 269.566406 57.554688 269.835938 57.882812 270.070312 58.234375 C 270.304688 58.585938 270.503906 58.957031 270.664062 59.347656 C 270.828125 59.738281 270.949219 60.140625 271.03125 60.558594 C 271.113281 60.972656 271.15625 61.390625 271.15625 61.8125 Z M 271.15625 61.8125 " fill-opacity="0.25" fill-rule="nonzero"/><path fill="#21254c" d="M 320.644531 61.8125 C 320.644531 62.238281 320.601562 62.65625 320.519531 63.070312 C 320.4375 63.488281 320.316406 63.890625 320.152344 64.28125 C 319.992188 64.671875 319.792969 65.042969 319.558594 65.394531 C 319.324219 65.746094 319.054688 66.070312 318.757812 66.371094 C 318.457031 66.671875 318.132812 66.9375 317.777344 67.171875 C 317.425781 67.40625 317.054688 67.605469 316.664062 67.769531 C 316.273438 67.929688 315.871094 68.050781 315.457031 68.136719 C 315.039062 68.21875 314.621094 68.257812 314.199219 68.257812 C 313.773438 68.257812 313.355469 68.21875 312.941406 68.136719 C 312.527344 68.050781 312.121094 67.929688 311.730469 67.769531 C 311.339844 67.605469 310.96875 67.40625 310.617188 67.171875 C 310.265625 66.9375 309.941406 66.671875 309.640625 66.371094 C 309.339844 66.070312 309.074219 65.746094 308.839844 65.394531 C 308.605469 65.042969 308.40625 64.671875 308.242188 64.28125 C 308.082031 63.890625 307.960938 63.488281 307.875 63.070312 C 307.792969 62.65625 307.753906 62.238281 307.753906 61.8125 C 307.753906 61.390625 307.792969 60.972656 307.875 60.558594 C 307.960938 60.140625 308.082031 59.738281 308.242188 59.347656 C 308.40625 58.957031 308.605469 58.585938 308.839844 58.234375 C 309.074219 57.882812 309.339844 57.554688 309.640625 57.257812 C 309.941406 56.957031 310.265625 56.691406 310.617188 56.457031 C 310.96875 56.21875 311.339844 56.023438 311.730469 55.859375 C 312.121094 55.699219 312.527344 55.574219 312.941406 55.492188 C 313.355469 55.410156 313.773438 55.371094 314.199219 55.371094 C 314.621094 55.371094 315.039062 55.410156 315.457031 55.492188 C 315.871094 55.574219 316.273438 55.699219 316.664062 55.859375 C 317.054688 56.023438 317.425781 56.21875 317.777344 56.457031 C 318.132812 56.691406 318.457031 56.957031 318.757812 57.257812 C 319.054688 57.554688 319.324219 57.882812 319.558594 58.234375 C 319.792969 58.585938 319.992188 58.957031 320.152344 59.347656 C 320.316406 59.738281 320.4375 60.140625 320.519531 60.558594 C 320.601562 60.972656 320.644531 61.390625 320.644531 61.8125 Z M 320.644531 61.8125 " fill-opacity="0.25" fill-rule="nonzero"/><path fill="#fec1b2" d="M 66.222656 -2.898438 C 47.078125 -2.898438 31.503906 12.675781 31.503906 31.816406 C 31.503906 41.714844 35.695312 50.640625 42.367188 56.972656 C 48.597656 62.878906 56.984375 66.527344 66.222656 66.527344 C 68.273438 66.527344 69.9375 64.867188 69.9375 62.816406 C 69.9375 60.765625 68.269531 59.101562 66.222656 59.101562 C 55.695312 59.101562 46.554688 53.097656 42.003906 44.339844 C 40.050781 40.582031 38.929688 36.335938 38.929688 31.824219 C 38.929688 16.78125 51.171875 4.546875 66.210938 4.546875 C 81.257812 4.546875 93.492188 16.785156 93.492188 31.824219 C 93.492188 33.246094 93.332031 34.683594 93.09375 36.128906 L 100.640625 36.128906 C 100.828125 34.691406 100.925781 33.25 100.925781 31.824219 C 100.933594 12.675781 85.363281 -2.898438 66.222656 -2.898438 Z M 66.222656 -2.898438 " fill-opacity="1" fill-rule="nonzero"/><path fill="#fec1b2" d="M 115.539062 -2.898438 C 96.394531 -2.898438 80.820312 12.675781 80.820312 31.816406 C 80.820312 41.714844 85.011719 50.640625 91.683594 56.972656 C 97.914062 62.878906 106.300781 66.527344 115.539062 66.527344 C 117.589844 66.527344 119.25 64.867188 119.25 62.816406 C 119.25 60.765625 117.582031 59.101562 115.539062 59.101562 C 105.007812 59.101562 95.871094 53.097656 91.320312 44.339844 C 89.367188 40.582031 88.246094 36.335938 88.246094 31.824219 C 88.246094 16.78125 100.488281 4.546875 115.527344 4.546875 C 130.574219 4.546875 142.808594 16.785156 142.808594 31.824219 C 142.808594 33.246094 142.644531 34.683594 142.410156 36.128906 L 149.953125 36.128906 C 150.140625 34.691406 150.242188 33.25 150.242188 31.824219 C 150.261719 12.675781 134.679688 -2.898438 115.539062 -2.898438 Z M 115.539062 -2.898438 " fill-opacity="1" fill-rule="nonzero"/><path fill="#fec1b2" d="M 164.855469 -2.898438 C 145.714844 -2.898438 130.140625 12.675781 130.140625 31.816406 C 130.140625 41.714844 134.332031 50.640625 141.003906 56.972656 C 147.230469 62.878906 155.621094 66.527344 164.855469 66.527344 C 166.910156 66.527344 168.570312 64.867188 168.570312 62.816406 C 168.570312 60.765625 166.902344 59.101562 164.855469 59.101562 C 154.328125 59.101562 145.191406 53.097656 140.640625 44.339844 C 138.6875 40.582031 137.566406 36.335938 137.566406 31.824219 C 137.566406 16.78125 149.804688 4.546875 164.847656 4.546875 C 179.894531 4.546875 192.128906 16.785156 192.128906 31.824219 C 192.128906 33.246094 191.964844 34.683594 191.730469 36.128906 L 199.273438 36.128906 C 199.460938 34.691406 199.558594 33.25 199.558594 31.824219 C 199.574219 12.675781 184 -2.898438 164.855469 -2.898438 Z M 164.855469 -2.898438 " fill-opacity="1" fill-rule="nonzero"/><path fill="#fec1b2" d="M 214.175781 -2.898438 C 195.035156 -2.898438 179.460938 12.675781 179.460938 31.816406 C 179.460938 41.714844 183.652344 50.640625 190.324219 56.972656 C 196.550781 62.878906 204.941406 66.527344 214.175781 66.527344 C 216.230469 66.527344 217.890625 64.867188 217.890625 62.816406 C 217.890625 60.765625 216.222656 59.101562 214.175781 59.101562 C 203.648438 59.101562 194.511719 53.097656 189.957031 44.339844 C 188.007812 40.582031 186.886719 36.335938 186.886719 31.824219 C 186.886719 16.78125 199.125 4.546875 214.167969 4.546875 C 229.214844 4.546875 241.449219 16.785156 241.449219 31.824219 C 241.449219 33.246094 241.285156 34.683594 241.050781 36.128906 L 248.59375 36.128906 C 248.78125 34.691406 248.878906 33.25 248.878906 31.824219 C 248.894531 12.675781 233.320312 -2.898438 214.175781 -2.898438 Z M 214.175781 -2.898438 " fill-opacity="1" fill-rule="nonzero"/><path fill="#fec1b2" d="M 263.496094 -2.898438 C 244.351562 -2.898438 228.78125 12.675781 228.78125 31.816406 C 228.78125 41.714844 232.972656 50.640625 239.644531 56.972656 C 245.871094 62.878906 254.261719 66.527344 263.496094 66.527344 C 265.550781 66.527344 267.210938 64.867188 267.210938 62.816406 C 267.210938 60.765625 265.542969 59.101562 263.496094 59.101562 C 252.96875 59.101562 243.832031 53.097656 239.277344 44.339844 C 237.324219 40.582031 236.207031 36.335938 236.207031 31.824219 C 236.207031 16.78125 248.445312 4.546875 263.488281 4.546875 C 278.535156 4.546875 290.769531 16.785156 290.769531 31.824219 C 290.769531 33.246094 290.605469 34.683594 290.371094 36.128906 L 297.914062 36.128906 C 298.101562 34.691406 298.199219 33.25 298.199219 31.824219 C 298.214844 12.675781 282.640625 -2.898438 263.496094 -2.898438 Z M 263.496094 -2.898438 " fill-opacity="1" fill-rule="nonzero"/><path fill="#fec1b2" d="M 312.816406 -2.898438 C 293.671875 -2.898438 278.101562 12.675781 278.101562 31.816406 C 278.101562 41.714844 282.292969 50.640625 288.964844 56.972656 C 295.191406 62.878906 303.574219 66.527344 312.8125 66.527344 C 314.863281 66.527344 316.527344 64.867188 316.527344 62.816406 C 316.527344 60.765625 314.859375 59.101562 312.8125 59.101562 C 302.285156 59.101562 293.144531 53.097656 288.59375 44.339844 C 286.640625 40.582031 285.523438 36.335938 285.523438 31.824219 C 285.523438 16.78125 297.761719 4.546875 312.804688 4.546875 C 327.847656 4.546875 340.082031 16.785156 340.082031 31.824219 C 340.082031 33.246094 339.921875 34.683594 339.683594 36.128906 L 347.230469 36.128906 C 347.417969 34.691406 347.515625 33.25 347.515625 31.824219 C 347.53125 12.675781 331.957031 -2.898438 312.816406 -2.898438 Z M 312.816406 -2.898438 " fill-opacity="1" fill-rule="nonzero"/><g fill="#cc214c" fill-opacity="1"><g transform="translate(95.460694, 173.039857)"><g><path d="M 6.046875 -8.578125 L 6.046875 -1.140625 L 9.21875 -0.75 L 9.21875 0 L 1.03125 0 L 1.03125 -0.75 L 3.296875 -1.140625 L 3.296875 -17.96875 L 0.84375 -18.34375 L 0.84375 -19.09375 L 15.171875 -19.09375 L 15.171875 -14.515625 L 14.234375 -14.515625 L 13.78125 -17.609375 C 12.707031 -17.742188 11.164062 -17.8125 9.15625 -17.8125 L 6.046875 -17.8125 L 6.046875 -9.859375 L 11.671875 -9.859375 L 12.109375 -12.125 L 12.96875 -12.125 L 12.96875 -6.265625 L 12.109375 -6.265625 L 11.671875 -8.578125 Z M 6.046875 -8.578125 "/></g></g></g><g fill="#cc214c" fill-opacity="1"><g transform="translate(111.680939, 173.039857)"><g><path d="M 0.84375 -0.75 L 3.296875 -1.140625 L 3.296875 -17.96875 L 0.84375 -18.34375 L 0.84375 -19.09375 L 15.171875 -19.09375 L 15.171875 -14.515625 L 14.234375 -14.515625 L 13.78125 -17.609375 C 12.707031 -17.742188 11.164062 -17.8125 9.15625 -17.8125 L 6.046875 -17.8125 L 6.046875 -10.34375 L 11.203125 -10.34375 L 11.640625 -12.625 L 12.546875 -12.625 L 12.546875 -6.765625 L 11.640625 -6.765625 L 11.203125 -9.0625 L 6.046875 -9.0625 L 6.046875 -1.28125 L 9.796875 -1.28125 C 12.242188 -1.28125 13.847656 -1.359375 14.609375 -1.515625 L 15.421875 -5.046875 L 16.359375 -5.046875 L 16.09375 0 L 0.84375 0 Z M 0.84375 -0.75 "/></g></g></g><g fill="#cc214c" fill-opacity="1"><g transform="translate(129.496151, 173.039857)"><g><path d="M 13.640625 -14.46875 C 13.640625 -15.632812 13.273438 -16.484375 12.546875 -17.015625 C 11.816406 -17.546875 10.628906 -17.8125 8.984375 -17.8125 L 6.046875 -17.8125 L 6.046875 -10.59375 L 9.15625 -10.59375 C 10.695312 -10.59375 11.828125 -10.894531 12.546875 -11.5 C 13.273438 -12.113281 13.640625 -13.101562 13.640625 -14.46875 Z M 15.078125 -5.4375 C 15.078125 -6.78125 14.628906 -7.757812 13.734375 -8.375 C 12.847656 -9 11.421875 -9.3125 9.453125 -9.3125 L 6.046875 -9.3125 L 6.046875 -1.28125 C 7.347656 -1.226562 8.742188 -1.203125 10.234375 -1.203125 C 11.847656 -1.203125 13.054688 -1.546875 13.859375 -2.234375 C 14.671875 -2.921875 15.078125 -3.988281 15.078125 -5.4375 Z M 0.84375 0 L 0.84375 -0.75 L 3.296875 -1.140625 L 3.296875 -17.96875 L 0.84375 -18.34375 L 0.84375 -19.09375 L 9.578125 -19.09375 C 11.992188 -19.09375 13.757812 -18.734375 14.875 -18.015625 C 16 -17.296875 16.5625 -16.160156 16.5625 -14.609375 C 16.5625 -13.484375 16.21875 -12.523438 15.53125 -11.734375 C 14.84375 -10.953125 13.878906 -10.429688 12.640625 -10.171875 C 14.359375 -9.984375 15.6875 -9.476562 16.625 -8.65625 C 17.5625 -7.84375 18.03125 -6.789062 18.03125 -5.5 C 18.03125 -3.664062 17.394531 -2.273438 16.125 -1.328125 C 14.863281 -0.390625 13.015625 0.078125 10.578125 0.078125 L 4.484375 0 Z M 0.84375 0 "/></g></g></g><g fill="#cc214c" fill-opacity="1"><g transform="translate(148.949046, 173.039857)"><g><path d="M 6.046875 -8.375 L 6.046875 -1.140625 L 8.9375 -0.75 L 8.9375 0 L 1.03125 0 L 1.03125 -0.75 L 3.296875 -1.140625 L 3.296875 -17.96875 L 0.84375 -18.34375 L 0.84375 -19.09375 L 9.09375 -19.09375 C 11.476562 -19.09375 13.238281 -18.6875 14.375 -17.875 C 15.519531 -17.070312 16.09375 -15.78125 16.09375 -14 C 16.09375 -12.726562 15.742188 -11.628906 15.046875 -10.703125 C 14.359375 -9.773438 13.398438 -9.128906 12.171875 -8.765625 L 17.34375 -1.140625 L 19.421875 -0.75 L 19.421875 0 L 14.84375 0 L 9.46875 -8.375 Z M 13.265625 -13.796875 C 13.265625 -15.242188 12.910156 -16.273438 12.203125 -16.890625 C 11.492188 -17.503906 10.25 -17.8125 8.46875 -17.8125 L 6.046875 -17.8125 L 6.046875 -9.65625 L 8.5625 -9.65625 C 10.257812 -9.65625 11.46875 -9.96875 12.1875 -10.59375 C 12.90625 -11.226562 13.265625 -12.296875 13.265625 -13.796875 Z M 13.265625 -13.796875 "/></g></g></g><g fill="#cc214c" fill-opacity="1"><g transform="translate(168.401941, 173.039857)"><g><path d="M 16.515625 -17.96875 L 13.9375 -18.34375 L 13.9375 -19.09375 L 20.453125 -19.09375 L 20.453125 -18.34375 L 18 -17.96875 L 18 -6.5625 C 18 -4.269531 17.367188 -2.554688 16.109375 -1.421875 C 14.859375 -0.285156 13.035156 0.28125 10.640625 0.28125 C 8.109375 0.28125 6.210938 -0.285156 4.953125 -1.421875 C 3.691406 -2.566406 3.0625 -4.191406 3.0625 -6.296875 L 3.0625 -17.96875 L 0.609375 -18.34375 L 0.609375 -19.09375 L 8.25 -19.09375 L 8.25 -18.34375 L 5.796875 -17.96875 L 5.796875 -6.5 C 5.796875 -3.039062 7.484375 -1.3125 10.859375 -1.3125 C 12.679688 -1.3125 14.078125 -1.742188 15.046875 -2.609375 C 16.023438 -3.472656 16.515625 -4.753906 16.515625 -6.453125 Z M 16.515625 -17.96875 "/></g></g></g><g fill="#cc214c" fill-opacity="1"><g transform="translate(189.464049, 173.039857)"><g><path d="M 6.5625 -0.75 L 6.5625 0 L 0.28125 0 L 0.28125 -0.75 L 2.453125 -1.140625 L 8.953125 -19.25 L 11.671875 -19.25 L 18.4375 -1.140625 L 20.859375 -0.75 L 20.859375 0 L 12.78125 0 L 12.78125 -0.75 L 15.34375 -1.140625 L 13.453125 -6.640625 L 5.921875 -6.640625 L 4 -1.140625 Z M 9.625 -17.203125 L 6.359375 -7.9375 L 13 -7.9375 Z M 9.625 -17.203125 "/></g></g></g><g fill="#cc214c" fill-opacity="1"><g transform="translate(210.526157, 173.039857)"><g><path d="M 6.046875 -8.375 L 6.046875 -1.140625 L 8.9375 -0.75 L 8.9375 0 L 1.03125 0 L 1.03125 -0.75 L 3.296875 -1.140625 L 3.296875 -17.96875 L 0.84375 -18.34375 L 0.84375 -19.09375 L 9.09375 -19.09375 C 11.476562 -19.09375 13.238281 -18.6875 14.375 -17.875 C 15.519531 -17.070312 16.09375 -15.78125 16.09375 -14 C 16.09375 -12.726562 15.742188 -11.628906 15.046875 -10.703125 C 14.359375 -9.773438 13.398438 -9.128906 12.171875 -8.765625 L 17.34375 -1.140625 L 19.421875 -0.75 L 19.421875 0 L 14.84375 0 L 9.46875 -8.375 Z M 13.265625 -13.796875 C 13.265625 -15.242188 12.910156 -16.273438 12.203125 -16.890625 C 11.492188 -17.503906 10.25 -17.8125 8.46875 -17.8125 L 6.046875 -17.8125 L 6.046875 -9.65625 L 8.5625 -9.65625 C 10.257812 -9.65625 11.46875 -9.96875 12.1875 -10.59375 C 12.90625 -11.226562 13.265625 -12.296875 13.265625 -13.796875 Z M 13.265625 -13.796875 "/></g></g></g><g fill="#cc214c" fill-opacity="1"><g transform="translate(228.369815, 173.039857)"><g><path d="M 11.9375 -7.515625 L 11.9375 -1.140625 L 14.96875 -0.75 L 14.96875 0 L 6.15625 0 L 6.15625 -0.75 L 9.1875 -1.140625 L 9.1875 -7.4375 L 2.484375 -17.96875 L 0.328125 -18.34375 L 0.328125 -19.09375 L 8.40625 -19.09375 L 8.40625 -18.34375 L 5.84375 -17.96875 L 11.328125 -9.15625 L 16.53125 -17.96875 L 14.109375 -18.34375 L 14.109375 -19.09375 L 20.328125 -19.09375 L 20.328125 -18.34375 L 18.234375 -17.96875 Z M 11.9375 -7.515625 "/></g></g></g><g fill="#cc214c" fill-opacity="1"><g transform="translate(104.628374, 286.063781)"><g><path d="M 35.71875 -4.5625 L 51.328125 -3.015625 L 51.328125 0 L 10.25 0 L 10.25 -3.015625 L 25.921875 -4.5625 L 25.921875 -66.875 L 10.484375 -61.359375 L 10.484375 -64.375 L 32.765625 -77.015625 L 35.71875 -77.015625 Z M 35.71875 -4.5625 "/></g></g></g><g fill="#cc214c" fill-opacity="1"><g transform="translate(162.970304, 286.063781)"><g><path d="M 46.15625 -16.8125 L 46.15625 0 L 36.34375 0 L 36.34375 -16.8125 L 2.28125 -16.8125 L 2.28125 -24.375 L 39.59375 -76.796875 L 46.15625 -76.796875 L 46.15625 -24.953125 L 56.515625 -24.953125 L 56.515625 -16.8125 Z M 36.34375 -63.40625 L 36.0625 -63.40625 L 8.71875 -24.953125 L 36.34375 -24.953125 Z M 36.34375 -63.40625 "/></g></g></g></svg>